<svg width="16" height="16" viewBox="0 0 16 16" fill="none" xmlns="http://www.w3.org/2000/svg">
<path d="M12.6667 2C13.0203 2 13.3594 2.14048 13.6095 2.39052C13.8595 2.64057 14 2.97971 14 3.33333V12.6667C14 13.0203 13.8595 13.3594 13.6095 13.6095C13.3594 13.8595 13.0203 14 12.6667 14H3.33333C2.97971 14 2.64057 13.8595 2.39052 13.6095C2.14048 13.3594 2 13.0203 2 12.6667V3.33333C2 2.97971 2.14048 2.64057 2.39052 2.39052C2.64057 2.14048 2.97971 2 3.33333 2H12.6667ZM12.6667 6H3.33333V12.6667H12.6667V6ZM5.66667 10C5.84348 10 6.01305 10.0702 6.13807 10.1953C6.2631 10.3203 6.33333 10.4899 6.33333 10.6667C6.33333 10.8435 6.2631 11.013 6.13807 11.1381C6.01305 11.2631 5.84348 11.3333 5.66667 11.3333H5C4.82319 11.3333 4.65362 11.2631 4.5286 11.1381C4.40357 11.013 4.33333 10.8435 4.33333 10.6667C4.33333 10.4899 4.40357 10.3203 4.5286 10.1953C4.65362 10.0702 4.82319 10 5 10H5.66667ZM8.33333 10C8.50325 10.0002 8.66669 10.0653 8.79025 10.1819C8.9138 10.2985 8.98816 10.458 8.99812 10.6276C9.00807 10.7972 8.95288 10.9643 8.84382 11.0946C8.73476 11.2249 8.58006 11.3086 8.41133 11.3287L8.33333 11.3333H7.66667C7.49675 11.3331 7.33331 11.2681 7.20975 11.1514C7.0862 11.0348 7.01184 10.8754 7.00189 10.7057C6.99193 10.5361 7.04712 10.3691 7.15618 10.2388C7.26524 10.1085 7.41994 10.0247 7.58867 10.0047L7.66667 10H8.33333ZM5.66667 7.33333C5.83659 7.33352 6.00002 7.39859 6.12358 7.51523C6.24714 7.63188 6.32149 7.7913 6.33145 7.96093C6.34141 8.13056 6.28622 8.29759 6.17716 8.42789C6.0681 8.55819 5.9134 8.64193 5.74467 8.662L5.66667 8.66667H5C4.83008 8.66648 4.66665 8.60141 4.54309 8.48477C4.41953 8.36812 4.34518 8.2087 4.33522 8.03907C4.32526 7.86944 4.38045 7.70241 4.48951 7.57211C4.59857 7.44181 4.75327 7.35807 4.922 7.338L5 7.33333H5.66667ZM8.33333 7.33333C8.51014 7.33333 8.67971 7.40357 8.80474 7.5286C8.92976 7.65362 9 7.82319 9 8C9 8.17681 8.92976 8.34638 8.80474 8.4714C8.67971 8.59643 8.51014 8.66667 8.33333 8.66667H7.66667C7.48986 8.66667 7.32029 8.59643 7.19526 8.4714C7.07024 8.34638 7 8.17681 7 8C7 7.82319 7.07024 7.65362 7.19526 7.5286C7.32029 7.40357 7.48986 7.33333 7.66667 7.33333H8.33333ZM11 7.33333C11.1699 7.33352 11.3334 7.39859 11.4569 7.51523C11.5805 7.63188 11.6548 7.7913 11.6648 7.96093C11.6747 8.13056 11.6196 8.29759 11.5105 8.42789C11.4014 8.55819 11.2467 8.64193 11.078 8.662L11 8.66667H10.3333C10.1634 8.66648 9.99998 8.60141 9.87642 8.48477C9.75286 8.36812 9.67851 8.2087 9.66855 8.03907C9.65859 7.86944 9.71378 7.70241 9.82284 7.57211C9.9319 7.44181 10.0866 7.35807 10.2553 7.338L10.3333 7.33333H11ZM12.6667 3.33333H3.33333V4.66667H12.6667V3.33333Z" fill="#1C252E"/>
</svg>
