<svg width="16" height="16" viewBox="0 0 16 16" fill="none" xmlns="http://www.w3.org/2000/svg">
<path d="M1.33325 8.08332C1.33325 4.35598 4.31792 1.33398 7.99992 1.33398C11.6819 1.33398 14.6666 4.35598 14.6666 8.08332V11.5787C14.6666 12.1233 14.6666 12.4973 14.5713 12.8253C14.4797 13.1412 14.3227 13.4342 14.1106 13.6855C13.8985 13.9368 13.6359 14.1407 13.3399 14.284C13.0346 14.4307 12.6706 14.4887 12.1393 14.5733L12.0526 14.5867C11.8917 14.6145 11.7301 14.6379 11.5679 14.6567C11.4286 14.67 11.2866 14.6747 11.1413 14.646C10.905 14.5982 10.6851 14.4903 10.5027 14.3326C10.3204 14.175 10.1819 13.9729 10.1006 13.746C10.0539 13.6086 10.0278 13.465 10.0233 13.32C10.0153 13.184 10.0153 13.0187 10.0153 12.8253V10.0433C10.0153 9.75998 10.0153 9.51598 10.0799 9.30665C10.1515 9.07255 10.2833 8.86133 10.462 8.69405C10.6408 8.52677 10.8603 8.40929 11.0986 8.35332C11.3093 8.30465 11.5499 8.32398 11.8293 8.34665L11.8913 8.35132L11.9646 8.35798C12.4866 8.39932 12.8446 8.42732 13.1479 8.54132C13.3617 8.62176 13.5579 8.72998 13.7366 8.86598V8.08332C13.7366 4.87598 11.1679 2.27598 7.99992 2.27598C4.83192 2.27598 2.26325 4.87598 2.26325 8.08332V8.86598C2.44125 8.73065 2.63859 8.62065 2.85192 8.54132C3.15525 8.42798 3.51325 8.39932 4.03525 8.35732L4.10859 8.35132L4.17059 8.34665C4.45059 8.32398 4.69059 8.30465 4.90125 8.35332C5.13958 8.40929 5.35906 8.52677 5.5378 8.69405C5.71654 8.86133 5.8483 9.07255 5.91992 9.30665C5.98525 9.51598 5.98459 9.75998 5.98459 10.0433V12.8247C5.98459 13.0187 5.98459 13.1847 5.97659 13.32C5.96859 13.462 5.94992 13.6047 5.89925 13.7453C5.818 13.9721 5.67958 14.1742 5.49739 14.3318C5.3152 14.4895 5.0954 14.5975 4.85925 14.6453C4.71813 14.6699 4.57415 14.6738 4.43192 14.6567C4.29792 14.6433 4.13592 14.6173 3.94725 14.5873L3.86059 14.574C3.32925 14.4887 2.96459 14.4307 2.65992 14.2833C2.36393 14.14 2.10136 13.9361 1.88923 13.6848C1.67711 13.4336 1.52017 13.1405 1.42859 12.8247C1.34992 12.5547 1.33592 12.2533 1.33392 11.8507L1.33325 11.7207V8.08332Z" fill="#637381"/>
<path fill-rule="evenodd" clip-rule="evenodd" d="M8 3.83398C8.13261 3.83398 8.25978 3.88666 8.35355 3.98043C8.44732 4.0742 8.5 4.20138 8.5 4.33398V7.66732C8.5 7.79993 8.44732 7.9271 8.35355 8.02087C8.25978 8.11464 8.13261 8.16732 8 8.16732C7.86739 8.16732 7.74022 8.11464 7.64645 8.02087C7.55268 7.9271 7.5 7.79993 7.5 7.66732V4.33398C7.5 4.20138 7.55268 4.0742 7.64645 3.98043C7.74022 3.88666 7.86739 3.83398 8 3.83398ZM10 4.83398C10.1326 4.83398 10.2598 4.88666 10.3536 4.98043C10.4473 5.0742 10.5 5.20138 10.5 5.33398V6.66732C10.5 6.79993 10.4473 6.9271 10.3536 7.02087C10.2598 7.11464 10.1326 7.16732 10 7.16732C9.86739 7.16732 9.74022 7.11464 9.64645 7.02087C9.55268 6.9271 9.5 6.79993 9.5 6.66732V5.33398C9.5 5.20138 9.55268 5.0742 9.64645 4.98043C9.74022 4.88666 9.86739 4.83398 10 4.83398ZM6 4.83398C6.13261 4.83398 6.25978 4.88666 6.35355 4.98043C6.44732 5.0742 6.5 5.20138 6.5 5.33398V6.66732C6.5 6.79993 6.44732 6.9271 6.35355 7.02087C6.25978 7.11464 6.13261 7.16732 6 7.16732C5.86739 7.16732 5.74022 7.11464 5.64645 7.02087C5.55268 6.9271 5.5 6.79993 5.5 6.66732V5.33398C5.5 5.20138 5.55268 5.0742 5.64645 4.98043C5.74022 4.88666 5.86739 4.83398 6 4.83398Z" fill="#637381"/>
</svg>
