<svg width="83" height="36" viewBox="0 0 83 36" fill="none" xmlns="http://www.w3.org/2000/svg">
<path d="M27.7784 12.0937C26.9949 12.6778 26.0393 12.8953 25.4277 13.4984C24.9451 12.997 24.3742 12.6186 23.7411 12.3254C23.8295 11.1643 23.3876 10.715 23.3804 9.76668C22.7211 10.6724 22.3818 10.1569 21.173 11.3913C19.484 10.8521 17.7616 10.5967 16.0225 10.4714C16.505 9.47817 16.0177 8.6292 15.0884 8.33123L15.043 7.88665H15.4467L15.817 8.19407C16.4453 7.59578 16.3522 7.02822 15.7669 6.48195L15.5972 6.75626L15.141 6.77282V6.55053L15.4276 6.20763C14.7062 5.84344 13.9561 5.83635 13.1844 6.19107L13.5882 6.42992L13.741 6.78937H13.268L12.9479 6.53161C12.4295 7.0566 12.4391 7.68564 12.9814 8.41637L13.2633 7.92449L13.655 7.93631L13.6288 8.34306C12.4988 8.85859 12.2551 9.57749 12.8978 10.5045C11.0033 10.5707 9.1973 10.942 7.45576 11.5214C6.76536 10.7504 6.02001 10.9396 5.44189 9.78323C5.56134 11.195 5.11939 11.6041 5.16 12.4626C4.51499 12.7629 3.94642 13.1933 3.4543 13.7514C2.53456 12.8835 1.71277 12.569 0.895752 12.2687C1.60288 13.321 1.97077 14.4112 2.50828 15.4824C2.44856 15.9341 2.59428 16.2747 3.19152 16.3669L4.7276 18.675C4.54365 19.1503 4.77299 19.5736 5.23883 19.6374L5.88385 20.5219C8.53795 20.1033 11.2112 19.7793 13.8653 19.7651C16.9374 19.7486 19.9141 20.0395 23.0603 20.4249L23.6671 19.4057C24.1664 19.3749 24.4769 18.9445 24.2165 18.4243L25.7144 16.173C26.4167 16.1399 26.5051 15.8206 26.3976 15.1727L27.7808 12.0937H27.7784ZM24.1425 14.4679C23.378 15.622 23.2538 16.6909 23.0436 17.3128C23.98 17.1662 23.9083 16.7784 24.3455 16.3338C24.5462 15.9649 24.6513 16.1351 24.508 16.4165C24.1353 17.0882 23.7292 17.7125 22.3102 17.5327C21.2734 17.1804 21.0106 16.5159 21.6866 15.5487C21.8993 15.3287 22.1453 15.3642 21.8993 15.7308C21.5146 16.5986 21.6269 17.0148 22.2934 17.2632C22.2743 16.4804 23.4592 15.8088 23.7387 14.9622C24.3455 14.0163 24.0278 13.4463 23.1343 13.3399L23.3326 13.0065C23.9394 13.3423 24.508 13.7041 24.938 14.17C24.6561 14.1581 24.3742 14.1298 24.1401 14.4632L24.1425 14.4679ZM4.55082 16.4709C4.99038 16.9179 4.86616 17.4429 6.24219 17.5706C5.27467 16.6388 5.55417 15.7402 4.78971 14.5885C4.5556 14.2527 4.2737 14.2811 3.99181 14.2953C4.50304 13.8578 5.04533 13.4865 5.59717 13.1318L5.76201 13.3967C4.86855 13.6237 4.58427 14.1416 5.19105 15.0875C5.46817 15.9341 6.65308 16.6057 6.63636 17.3885C7.16909 17.1544 7.41515 16.724 7.03053 15.8561C6.9302 15.525 7.07831 15.4635 7.24315 15.6716C7.8786 16.6176 7.48443 17.2159 6.61964 17.6533C5.19822 17.8307 4.74432 17.2253 4.36926 16.5537C4.22593 16.2723 4.35015 16.102 4.55082 16.4709ZM12.8118 11.4221C12.7329 11.7153 12.7974 12.0109 13.01 12.3041C11.6818 11.8052 10.6474 12.2166 10.6617 13.5196C10.7238 14.4537 11.7845 15.4659 11.5193 16.7192C12.5346 16.5797 12.979 15.9057 12.9097 14.9196C13.0841 14.4041 13.5404 14.5673 13.4353 15.3193C13.0698 17.0976 10.719 17.6912 9.14952 16.452C8.80073 16.1706 8.59767 15.8253 8.53795 15.4162C8.52839 14.9196 8.91779 14.9764 9.09935 15.6338C9.16624 16.3882 9.75153 16.7145 10.6928 16.75C10.2102 15.9057 10.5064 15.0615 10.4133 14.2173C10.1385 12.893 9.16146 12.297 7.88577 12.796L7.85233 12.1835C9.62014 11.6987 11.2924 11.4362 12.8094 11.4173L12.8118 11.4221ZM18.4162 14.2149C18.335 15.0615 18.6455 15.901 18.1749 16.7524C19.1138 16.7027 19.6967 16.3669 19.7516 15.6125C19.9236 14.9504 20.313 14.8865 20.3106 15.3855C20.2581 15.7946 20.0598 16.1422 19.7158 16.4307C18.1654 17.6936 15.8075 17.1355 15.4133 15.3642C15.2294 14.5815 15.817 14.4254 16.001 14.9385C15.9484 16.0287 16.2351 16.4709 17.2504 16.5963C16.9661 15.35 18.1128 14.4561 18.1606 13.522C18.1558 12.219 17.1166 11.8241 15.7955 12.342C16.0034 12.044 16.0631 11.7484 15.9795 11.4552C17.4845 11.4386 19.4936 11.6514 20.9485 12.1433L20.9246 12.7558C19.8782 12.0204 18.6742 12.8859 18.4186 14.2149H18.4162Z" fill="#1C252E"/>
<path d="M29.6168 13.4345V13.1422H29.7084C29.8101 13.1422 29.9067 13.1321 29.9932 13.112C30.0796 13.0918 30.1508 13.0465 30.2042 12.9809C30.2576 12.9129 30.2856 12.8121 30.2856 12.6785V9.23622C30.2856 9.09762 30.2576 8.9943 30.2042 8.92626C30.1508 8.85822 30.0796 8.81538 29.9932 8.79522C29.9067 8.77506 29.8126 8.76498 29.7084 8.76498H29.6168V8.47266H31.5036C31.9105 8.47266 32.2487 8.52306 32.5157 8.62134C32.7827 8.72214 32.981 8.8683 33.1133 9.06738C33.243 9.26394 33.3091 9.51342 33.3091 9.81582C33.3091 10.0628 33.2582 10.2694 33.154 10.4383C33.0497 10.6071 32.92 10.7432 32.7649 10.844C32.6072 10.9473 32.4445 11.0254 32.2767 11.0809L33.2379 12.5903C33.3599 12.7768 33.4769 12.9154 33.5888 13.0087C33.7007 13.1019 33.8304 13.1473 33.9753 13.1473H33.9957V13.4396H33.8965C33.6066 13.4396 33.3803 13.4245 33.2201 13.3942C33.0599 13.364 32.9276 13.3035 32.831 13.2128C32.7318 13.1221 32.6301 12.9885 32.5233 12.8121L31.5748 11.2472H30.9925V12.6811C30.9925 12.8146 31.0205 12.9154 31.0739 12.9835C31.1273 13.0515 31.1985 13.0943 31.2849 13.1145C31.3714 13.1347 31.4655 13.1447 31.5697 13.1447H31.6613V13.4371H29.6194L29.6168 13.4345ZM31.4833 10.9171C31.8952 10.9171 32.1775 10.8263 32.3301 10.6449C32.4826 10.4635 32.5589 10.1938 32.5589 9.83094C32.5589 9.58146 32.5233 9.37986 32.4547 9.22866C32.3835 9.07746 32.269 8.9691 32.1114 8.90106C31.9512 8.83302 31.7401 8.80026 31.4731 8.80026H30.9951V10.9145H31.4858L31.4833 10.9171Z" fill="#1C252E"/>
<path d="M34.2195 13.4351V13.1428H34.311C34.4127 13.1428 34.5094 13.1327 34.5958 13.1125C34.6823 13.0924 34.7535 13.047 34.8069 12.9815C34.8603 12.9135 34.8883 12.8127 34.8883 12.6791V9.2645C34.8883 9.11582 34.8628 9.00746 34.812 8.9369C34.7611 8.86634 34.6925 8.82098 34.606 8.7983C34.5195 8.77562 34.4229 8.76302 34.3136 8.76302H34.222V8.4707H37.7592L37.7948 9.68786H37.4286L37.393 9.38798C37.3828 9.28718 37.3574 9.19142 37.3116 9.10574C37.2684 9.02006 37.2023 8.9495 37.1158 8.89658C37.0294 8.84366 36.9149 8.81594 36.7751 8.81594H35.5952V10.6656H37.2862V11.0058H35.5952V13.0848H36.9505C37.1006 13.0848 37.2201 13.0571 37.3116 13.0042C37.4032 12.9513 37.4718 12.8807 37.5227 12.795C37.571 12.7093 37.604 12.6161 37.6168 12.5128L37.6651 12.2129H38.0313L37.9829 13.4301H34.222L34.2195 13.4351Z" fill="#1C252E"/>
<path d="M38.3261 13.4343V13.142H38.4584C38.5525 13.142 38.6262 13.1268 38.6822 13.0991C38.7381 13.0714 38.789 13.0185 38.8373 12.9378C38.883 12.8597 38.9364 12.7463 38.9924 12.5976L40.5512 8.46484H41.0979L42.6846 12.7715C42.7228 12.8698 42.7609 12.9454 42.8042 12.9983C42.8474 13.0512 42.8982 13.089 42.9593 13.1092C43.0203 13.1294 43.094 13.1394 43.183 13.1394H43.2746V13.4318H41.3445V13.1394H41.5047C41.6446 13.1394 41.7514 13.1117 41.8201 13.0588C41.8887 13.0059 41.9243 12.9202 41.9243 12.8043C41.9243 12.7766 41.9243 12.7488 41.9167 12.7236C41.9116 12.6984 41.9065 12.6707 41.8989 12.6405C41.8913 12.6102 41.8811 12.58 41.8684 12.5472L41.5887 11.7686H39.7425L39.4755 12.4994C39.4628 12.5372 39.4501 12.5724 39.4399 12.6102C39.4298 12.648 39.4247 12.6808 39.4196 12.711C39.4145 12.7413 39.412 12.769 39.412 12.7992C39.412 12.9152 39.4501 13.0008 39.5289 13.0563C39.6052 13.1117 39.7222 13.1394 39.8773 13.1394H40.0375V13.4318H38.3236L38.3261 13.4343ZM39.8773 11.4258H41.4641L41.0292 10.2087C40.9835 10.0701 40.9377 9.93652 40.8919 9.81304C40.8487 9.68704 40.808 9.56608 40.7724 9.45016C40.7368 9.33424 40.7063 9.22084 40.6783 9.10996C40.6554 9.22084 40.6275 9.3292 40.5969 9.43252C40.5664 9.53584 40.5334 9.64672 40.4952 9.76012C40.4571 9.87352 40.4113 10.002 40.3554 10.1457L39.8773 11.4258Z" fill="#1C252E"/>
<path d="M43.5416 13.4343V13.142H43.6332C43.74 13.142 43.8366 13.1294 43.9256 13.1067C44.0121 13.084 44.0807 13.0361 44.1316 12.963C44.1824 12.89 44.2079 12.7841 44.2079 12.6405V9.25864C44.2079 9.10996 44.1824 9.0016 44.1316 8.93104C44.0807 8.86048 44.0121 8.81512 43.9256 8.79244C43.8391 8.76976 43.7425 8.75716 43.6332 8.75716H43.5416V8.46484H45.5836V8.75716H45.492C45.3878 8.75716 45.2937 8.76724 45.2072 8.7874C45.1207 8.80756 45.0496 8.85292 44.9962 8.91844C44.9428 8.98648 44.9148 9.0898 44.9148 9.2284V13.0815H46.2981C46.438 13.0815 46.5524 13.0512 46.6388 12.9882C46.7253 12.9252 46.7889 12.8446 46.8321 12.7488C46.8753 12.6506 46.9033 12.5548 46.916 12.4565L46.9872 11.9349H47.3534L47.3051 13.4292H43.5442L43.5416 13.4343Z" fill="#1C252E"/>
<path d="M49.4715 13.4343V13.142H49.6038C49.6979 13.142 49.7716 13.1268 49.8275 13.0991C49.8835 13.0714 49.9343 13.0185 49.9827 12.9378C50.0284 12.8597 50.0818 12.7463 50.1378 12.5976L51.6966 8.46484H52.2433L53.83 12.7715C53.8682 12.8698 53.9063 12.9454 53.9495 12.9983C53.9928 13.0512 54.0436 13.089 54.1047 13.1092C54.1657 13.1294 54.2394 13.1394 54.3284 13.1394H54.42V13.4318H52.4899V13.1394H52.6501C52.79 13.1394 52.8968 13.1117 52.9654 13.0588C53.0341 13.0059 53.0697 12.9202 53.0697 12.8043C53.0697 12.7766 53.0697 12.7488 53.0621 12.7236C53.057 12.6984 53.0519 12.6707 53.0443 12.6405C53.0366 12.6102 53.0265 12.58 53.0138 12.5472L52.734 11.7686H50.8879L50.6209 12.4994C50.6082 12.5372 50.5955 12.5724 50.5853 12.6102C50.5751 12.648 50.5701 12.6808 50.565 12.711C50.5599 12.7413 50.5573 12.769 50.5573 12.7992C50.5573 12.9152 50.5955 13.0008 50.6743 13.0563C50.7506 13.1117 50.8676 13.1394 51.0227 13.1394H51.1829V13.4318H49.469L49.4715 13.4343ZM51.0227 11.4258H52.6094L52.1746 10.2087C52.1288 10.0701 52.0831 9.93652 52.0373 9.81304C51.9941 9.68704 51.9534 9.56608 51.9178 9.45016C51.8822 9.33424 51.8517 9.22084 51.8237 9.10996C51.8008 9.22084 51.7728 9.3292 51.7423 9.43252C51.7118 9.53584 51.6788 9.64672 51.6406 9.76012C51.6025 9.87352 51.5567 10.002 51.5008 10.1457L51.0227 11.4258Z" fill="#1C252E"/>
<path d="M54.687 13.4343V13.142H54.7786C54.8854 13.142 54.982 13.1294 55.071 13.1067C55.1574 13.084 55.2261 13.0361 55.277 12.963C55.3278 12.89 55.3532 12.7841 55.3532 12.6405V9.25864C55.3532 9.10996 55.3278 9.0016 55.277 8.93104C55.2261 8.86048 55.1574 8.81512 55.071 8.79244C54.9845 8.76976 54.8879 8.75716 54.7786 8.75716H54.687V8.46484H56.7289V8.75716H56.6374C56.5331 8.75716 56.4391 8.76724 56.3526 8.7874C56.2661 8.80756 56.1949 8.85292 56.1415 8.91844C56.0881 8.98648 56.0602 9.0898 56.0602 9.2284V13.0815H57.4435C57.5833 13.0815 57.6978 13.0512 57.7842 12.9882C57.8707 12.9252 57.9343 12.8446 57.9775 12.7488C58.0207 12.6506 58.0487 12.5548 58.0614 12.4565L58.1326 11.9349H58.4988L58.4505 13.4292H54.6896L54.687 13.4343Z" fill="#1C252E"/>
<path d="M61.3265 13.5059C60.8637 13.5059 60.4721 13.4001 60.1542 13.1859C59.8363 12.9717 59.5973 12.6743 59.4346 12.2913C59.2718 11.9082 59.193 11.4597 59.193 10.9456C59.193 10.4315 59.2795 10.0031 59.4498 9.62007C59.6202 9.23703 59.8745 8.93715 60.2076 8.72295C60.5433 8.50623 60.9552 8.40039 61.446 8.40039C61.7638 8.40039 62.0283 8.43315 62.2394 8.50119C62.4504 8.56923 62.6055 8.65995 62.7098 8.77839C62.8115 8.89683 62.8649 9.03039 62.8649 9.17907C62.8649 9.32775 62.8064 9.44619 62.6894 9.53439C62.5725 9.62259 62.4275 9.66543 62.2546 9.66543C62.2546 9.52179 62.2292 9.38067 62.1783 9.24459C62.1275 9.10851 62.041 8.99511 61.9215 8.90439C61.802 8.81367 61.6392 8.76831 61.4333 8.76831C61.0824 8.76831 60.8001 8.85399 60.5839 9.02283C60.3678 9.19167 60.2127 9.43863 60.1161 9.76371C60.0194 10.0888 59.9711 10.4819 59.9711 10.9456C59.9711 11.3589 60.022 11.7243 60.1211 12.0418C60.2229 12.3593 60.3805 12.6063 60.5941 12.7827C60.8103 12.9591 61.0874 13.0473 61.4307 13.0473C61.6596 13.0473 61.8554 13.0196 62.013 12.9641C62.1707 12.9087 62.3055 12.8356 62.4174 12.7449C62.5267 12.6542 62.6208 12.5584 62.7022 12.4551C62.7403 12.4778 62.7708 12.513 62.7962 12.5559C62.8217 12.6012 62.8344 12.6567 62.8344 12.7272C62.8344 12.8154 62.8039 12.9036 62.7428 12.9943C62.6818 13.0851 62.5903 13.1682 62.4682 13.2438C62.3462 13.3194 62.191 13.3824 62.0003 13.4328C61.8096 13.4807 61.5858 13.5059 61.3239 13.5059H61.3265Z" fill="#1C252E"/>
<path d="M63.104 13.4348V13.1425H63.2362C63.3303 13.1425 63.404 13.1274 63.46 13.0997C63.5159 13.0719 63.5668 13.019 63.6151 12.9384C63.6609 12.8603 63.7143 12.7469 63.7702 12.5982L65.329 8.46538H65.8757L67.4625 12.7721C67.5006 12.8703 67.5388 12.9459 67.582 12.9989C67.6252 13.0518 67.6761 13.0896 67.7371 13.1097C67.7981 13.1299 67.8719 13.14 67.9609 13.14H68.0524V13.4323H66.1224V13.14H66.2826C66.4224 13.14 66.5292 13.1123 66.5979 13.0593C66.6666 13.0064 66.7022 12.9207 66.7022 12.8048C66.7022 12.7771 66.7022 12.7494 66.6945 12.7242C66.6894 12.699 66.6844 12.6713 66.6767 12.641C66.6691 12.6108 66.6589 12.5805 66.6462 12.5478L66.3665 11.7691H64.5204L64.2534 12.4999C64.2406 12.5377 64.2279 12.573 64.2178 12.6108C64.2076 12.6486 64.2025 12.6813 64.1974 12.7116C64.1923 12.7418 64.1898 12.7695 64.1898 12.7998C64.1898 12.9157 64.2279 13.0014 64.3068 13.0568C64.383 13.1123 64.5 13.14 64.6551 13.14H64.8153V13.4323H63.1014L63.104 13.4348ZM64.6551 11.4264H66.2419L65.8071 10.2092C65.7613 10.0706 65.7155 9.93706 65.6697 9.81358C65.6265 9.68758 65.5858 9.56662 65.5502 9.4507C65.5146 9.33478 65.4841 9.22138 65.4561 9.1105C65.4333 9.22138 65.4053 9.32974 65.3748 9.43306C65.3443 9.53638 65.3112 9.64726 65.2731 9.76066C65.2349 9.87406 65.1891 10.0026 65.1332 10.1462L64.6551 11.4264ZM65.2858 7.98154C65.357 7.89334 65.4282 7.79002 65.5045 7.66906C65.5782 7.5481 65.6519 7.42462 65.7231 7.30114C65.7943 7.17514 65.8528 7.06174 65.8986 6.96094H66.6487V7.0315C66.6055 7.09198 66.5445 7.16758 66.458 7.26082C66.3741 7.35406 66.28 7.44982 66.1732 7.55314C66.069 7.65646 65.9622 7.75222 65.8528 7.84294C65.746 7.93366 65.6443 8.01178 65.5502 8.07478H65.2832V7.98406L65.2858 7.98154Z" fill="#1C252E"/>
<path d="M68.3041 13.4345V13.1573L70.936 8.8179H69.4128C69.2068 8.8179 69.0644 8.87586 68.9856 8.98926C68.9067 9.10266 68.8559 9.23622 68.8381 9.38994L68.8025 9.68982H68.4388L68.4745 8.47266H71.8005V8.75742L69.161 13.0918H70.9309C71.0707 13.0918 71.1801 13.0641 71.2614 13.0112C71.3403 12.9583 71.4013 12.8877 71.4394 12.802C71.4801 12.7163 71.503 12.6231 71.5132 12.5198L71.5488 12.2199H71.915L71.8794 13.4371H68.3066L68.3041 13.4345Z" fill="#1C252E"/>
<path d="M72.2074 13.4343V13.142H72.3396C72.4337 13.142 72.5074 13.1268 72.5634 13.0991C72.6193 13.0714 72.6702 13.0185 72.7185 12.9378C72.7643 12.8597 72.8177 12.7463 72.8736 12.5976L74.4324 8.46484H74.9791L76.5659 12.7715C76.604 12.8698 76.6422 12.9454 76.6854 12.9983C76.7286 13.0512 76.7795 13.089 76.8405 13.1092C76.9015 13.1294 76.9753 13.1394 77.0643 13.1394H77.1558V13.4318H75.2258V13.1394H75.386C75.5258 13.1394 75.6326 13.1117 75.7013 13.0588C75.7699 13.0059 75.8055 12.9202 75.8055 12.8043C75.8055 12.7766 75.8055 12.7488 75.7979 12.7236C75.7928 12.6984 75.7877 12.6707 75.7801 12.6405C75.7725 12.6102 75.7623 12.58 75.7496 12.5472L75.4699 11.7686H73.6238L73.3568 12.4994C73.344 12.5372 73.3313 12.5724 73.3212 12.6102C73.311 12.648 73.3059 12.6808 73.3008 12.711C73.2957 12.7413 73.2932 12.769 73.2932 12.7992C73.2932 12.9152 73.3313 13.0008 73.4102 13.0563C73.4864 13.1117 73.6034 13.1394 73.7585 13.1394H73.9187V13.4318H72.2048L72.2074 13.4343ZM73.7585 11.4258H75.3453L74.9105 10.2087C74.8647 10.0701 74.8189 9.93652 74.7731 9.81304C74.7299 9.68704 74.6892 9.56608 74.6536 9.45016C74.618 9.33424 74.5875 9.22084 74.5595 9.10996C74.5367 9.22084 74.5087 9.3292 74.4782 9.43252C74.4477 9.53584 74.4146 9.64672 74.3765 9.76012C74.3383 9.87352 74.2925 10.002 74.2366 10.1457L73.7585 11.4258Z" fill="#1C252E"/>
<path d="M77.4229 13.4345V13.1422H77.5144C77.6161 13.1422 77.7127 13.1321 77.7992 13.112C77.8857 13.0918 77.9569 13.0465 78.0103 12.9809C78.0637 12.9129 78.0916 12.8121 78.0916 12.6785V9.23622C78.0916 9.09762 78.0637 8.9943 78.0103 8.92626C77.9569 8.85822 77.8857 8.81538 77.7992 8.79522C77.7127 8.77506 77.6186 8.76498 77.5144 8.76498H77.4229V8.47266H79.3097C79.7165 8.47266 80.0547 8.52306 80.3217 8.62134C80.5887 8.72214 80.7871 8.8683 80.9193 9.06738C81.049 9.26394 81.1151 9.51342 81.1151 9.81582C81.1151 10.0628 81.0643 10.2694 80.96 10.4383C80.8557 10.6071 80.726 10.7432 80.5709 10.844C80.4133 10.9473 80.2505 11.0254 80.0827 11.0809L81.0439 12.5903C81.166 12.7768 81.2829 12.9154 81.3948 13.0087C81.5067 13.1019 81.6364 13.1473 81.7813 13.1473H81.8017V13.4396H81.7025C81.4126 13.4396 81.1863 13.4245 81.0261 13.3942C80.8659 13.364 80.7337 13.3035 80.637 13.2128C80.5379 13.1221 80.4362 12.9885 80.3294 12.8121L79.3809 11.2472H78.7985V12.6811C78.7985 12.8146 78.8265 12.9154 78.8799 12.9835C78.9333 13.0515 79.0045 13.0943 79.091 13.1145C79.1774 13.1347 79.2715 13.1447 79.3758 13.1447H79.4673V13.4371H77.4254L77.4229 13.4345ZM79.2893 10.9171C79.7013 10.9171 79.9835 10.8263 80.1361 10.6449C80.2887 10.4635 80.365 10.1938 80.365 9.83094C80.365 9.58146 80.3294 9.37986 80.2607 9.22866C80.1895 9.07746 80.0751 8.9691 79.9174 8.90106C79.7572 8.83302 79.5462 8.80026 79.2791 8.80026H78.8011V10.9145H79.2919L79.2893 10.9171Z" fill="#1C252E"/>
<path d="M29.6957 22.1061V21.7256H29.8152C29.9551 21.7256 30.0822 21.7105 30.1941 21.6802C30.306 21.65 30.3975 21.587 30.4636 21.4938C30.5297 21.4005 30.5653 21.2594 30.5653 21.0729V16.6302C30.5653 16.4487 30.5297 16.3152 30.4611 16.227C30.3899 16.1388 30.2983 16.0808 30.1865 16.0556C30.0746 16.0279 29.95 16.0153 29.8152 16.0153H29.6957V15.6348H32.4954C33.1235 15.6348 33.66 15.7608 34.105 16.0102C34.55 16.2622 34.8908 16.6276 35.1247 17.1064C35.3587 17.5878 35.4756 18.1724 35.4756 18.8604C35.4756 19.5483 35.3637 20.0926 35.1425 20.579C34.9187 21.0654 34.5882 21.4408 34.1508 21.708C33.7109 21.9751 33.1591 22.1061 32.4954 22.1061H29.6957ZM32.2869 21.645C32.7751 21.645 33.1794 21.5366 33.4998 21.3224C33.8202 21.1082 34.0618 20.7932 34.222 20.3799C34.3822 19.9666 34.4636 19.4601 34.4636 18.8604C34.4636 18.2606 34.3822 17.7566 34.222 17.3458C34.0593 16.9351 33.8202 16.6226 33.4998 16.4084C33.1794 16.1942 32.7776 16.0858 32.297 16.0858H31.491V21.6424H32.2869V21.645Z" fill="#1C252E"/>
<path d="M36.3479 22.1061V21.7256H36.4674C36.6022 21.7256 36.7242 21.713 36.8387 21.6853C36.9506 21.6576 37.0421 21.5996 37.1133 21.5139C37.1845 21.4282 37.2176 21.2947 37.2176 21.1208V16.668C37.2176 16.4739 37.1845 16.3328 37.1158 16.2421C37.0497 16.1514 36.9582 16.0909 36.8463 16.0606C36.7344 16.0304 36.6073 16.0153 36.4674 16.0153H36.3479V15.6348H40.9581L41.0039 17.2224H40.5284L40.4826 16.8318C40.4699 16.6982 40.4343 16.5772 40.3784 16.4638C40.3199 16.353 40.236 16.2622 40.1215 16.1917C40.0096 16.1211 39.8596 16.0884 39.6765 16.0884H38.1406V18.5H40.3453V18.9435H38.1406V21.655H39.9054C40.1012 21.655 40.2563 21.6198 40.3758 21.5517C40.4953 21.4837 40.5869 21.3904 40.6504 21.2796C40.714 21.1687 40.7547 21.0452 40.775 20.9116L40.8386 20.521H41.3141L41.2506 22.1086H36.3479V22.1061Z" fill="#1C252E"/>
<path d="M46.3388 22.1969C46.0387 22.1969 45.7768 22.1667 45.5479 22.1062C45.3191 22.0457 45.1284 21.9575 44.9758 21.8441C44.8232 21.7282 44.7088 21.5921 44.6325 21.4359C44.5562 21.2796 44.5181 21.1057 44.5181 20.9193C44.5181 20.7983 44.5435 20.6925 44.5969 20.6017C44.6478 20.511 44.724 20.4405 44.8207 20.3875C44.9173 20.3371 45.0368 20.3094 45.1767 20.3094C45.1894 20.5564 45.2377 20.7907 45.3242 21.0125C45.4106 21.2343 45.5403 21.4107 45.7183 21.5467C45.8963 21.6828 46.1277 21.7509 46.4125 21.7509C46.8219 21.7509 47.1423 21.6526 47.3737 21.456C47.6051 21.2595 47.7221 20.9772 47.7221 20.6093C47.7221 20.385 47.6789 20.196 47.5899 20.0423C47.5009 19.8886 47.3559 19.7449 47.1499 19.6114C46.9465 19.4778 46.6643 19.3392 46.3032 19.1931C45.9243 19.0368 45.6115 18.868 45.3598 18.6865C45.1106 18.5051 44.9224 18.2934 44.8003 18.0465C44.6783 17.802 44.6172 17.5122 44.6172 17.1796C44.6172 16.8469 44.7037 16.5395 44.8792 16.2951C45.0521 16.0506 45.2911 15.8641 45.5937 15.7331C45.8963 15.6021 46.2396 15.5391 46.6236 15.5391C47.0075 15.5391 47.3 15.5869 47.5517 15.6852C47.806 15.781 47.9993 15.907 48.1315 16.0607C48.2663 16.2144 48.3324 16.3807 48.3324 16.5546C48.3324 16.7487 48.2663 16.8948 48.1366 16.9931C48.0043 17.0939 47.8289 17.1418 47.6102 17.1418C47.6102 16.9553 47.5771 16.7739 47.5136 16.5975C47.45 16.4211 47.3432 16.2774 47.1932 16.1615C47.0431 16.0456 46.8423 15.9901 46.5854 15.9901C46.232 15.9901 45.9573 16.0834 45.7615 16.2724C45.5657 16.4589 45.4691 16.7109 45.4691 17.0259C45.4691 17.2678 45.5123 17.4719 45.6013 17.6382C45.6903 17.8045 45.8378 17.9532 46.0463 18.0817C46.2523 18.2128 46.5346 18.3489 46.888 18.495C47.2491 18.6412 47.5543 18.7999 47.8085 18.9713C48.0628 19.1427 48.2561 19.3417 48.3883 19.566C48.5231 19.7903 48.5892 20.0599 48.5892 20.3724C48.5892 20.7605 48.4977 21.0881 48.3146 21.3552C48.1315 21.6249 47.8721 21.8315 47.5314 21.9751C47.1932 22.1213 46.7939 22.1919 46.3388 22.1919V22.1969Z" fill="#1C252E"/>
<path d="M49.403 22.1061V21.7256H49.5225C49.6572 21.7256 49.7793 21.713 49.8937 21.6853C50.0056 21.6576 50.0972 21.5996 50.1684 21.5139C50.2396 21.4282 50.2726 21.2947 50.2726 21.1208V16.668C50.2726 16.4739 50.2396 16.3328 50.1709 16.2421C50.1048 16.1514 50.0132 16.0909 49.9014 16.0606C49.7895 16.0304 49.6623 16.0153 49.5225 16.0153H49.403V15.6348H54.0132L54.059 17.2224H53.5834L53.5377 16.8318C53.525 16.6982 53.4894 16.5772 53.4334 16.4638C53.3749 16.353 53.291 16.2622 53.1766 16.1917C53.0647 16.1211 52.9147 16.0884 52.7316 16.0884H51.1957V18.5H53.4004V18.9435H51.1957V21.655H52.9604C53.1562 21.655 53.3114 21.6198 53.4309 21.5517C53.5504 21.4837 53.6419 21.3904 53.7055 21.2796C53.7691 21.1687 53.8098 21.0452 53.8301 20.9116L53.8937 20.521H54.3692L54.3056 22.1086H49.403V22.1061Z" fill="#1C252E"/>
<path d="M55.5237 16.4947C55.4804 16.3687 55.4321 16.2704 55.3762 16.1998C55.3202 16.1293 55.2541 16.0814 55.1753 16.0537C55.0965 16.0259 54.9947 16.0133 54.8727 16.0133H54.7532V15.6328H57.2681V16.0133H57.057C56.8739 16.0133 56.7366 16.0486 56.6451 16.1167C56.5535 16.1872 56.5078 16.2956 56.5078 16.4468C56.5078 16.477 56.5103 16.5098 56.5179 16.5476C56.5256 16.5854 56.5332 16.6207 56.5459 16.6559C56.5586 16.6912 56.5713 16.7341 56.5815 16.7819L57.5885 19.7278C57.6495 19.9042 57.7055 20.0781 57.7538 20.2545C57.8021 20.4309 57.8479 20.5972 57.8911 20.7585C57.9343 20.9198 57.9699 21.071 58.0004 21.2171C58.0309 21.071 58.0665 20.9223 58.1047 20.7635C58.1454 20.6073 58.1911 20.441 58.242 20.2696C58.2929 20.0983 58.3539 19.9168 58.42 19.7303L59.427 16.8475C59.4448 16.7996 59.46 16.7517 59.4727 16.7013C59.4855 16.6534 59.4931 16.6081 59.5007 16.5652C59.5058 16.5224 59.5109 16.4871 59.5109 16.4569C59.5109 16.3006 59.46 16.1872 59.3609 16.1167C59.2591 16.0461 59.1091 16.0133 58.9082 16.0133H58.6972V15.6328H60.9298V16.0133H60.7569C60.6399 16.0133 60.5433 16.031 60.4645 16.0688C60.3856 16.1041 60.3144 16.1721 60.2534 16.2729C60.1924 16.3737 60.1288 16.5224 60.0627 16.7215L58.1683 22.1067H57.4995L55.5237 16.4947Z" fill="#1C252E"/>
<path d="M61.2782 22.1061V21.7256H61.3977C61.5376 21.7256 61.6647 21.7105 61.7766 21.6802C61.8885 21.65 61.98 21.587 62.0461 21.4938C62.1123 21.4005 62.1479 21.2594 62.1479 21.0729V16.668C62.1479 16.4739 62.1148 16.3328 62.0461 16.2421C61.98 16.1514 61.8885 16.0909 61.7766 16.0606C61.6647 16.0304 61.5376 16.0153 61.3977 16.0153H61.2782V15.6348H63.9406V16.0153H63.8211C63.6863 16.0153 63.5617 16.0304 63.4447 16.0606C63.3278 16.0909 63.2362 16.1514 63.1701 16.2421C63.104 16.3328 63.0684 16.4739 63.0684 16.668V21.0729C63.0684 21.2594 63.1014 21.4005 63.1701 21.4938C63.2362 21.587 63.3278 21.65 63.4447 21.6802C63.5617 21.7105 63.6863 21.7256 63.8211 21.7256H63.9406V22.1061H61.2782Z" fill="#1C252E"/>
<path d="M64.6348 22.1061V21.7256H64.7543C64.8941 21.7256 65.0213 21.7105 65.1332 21.6802C65.2451 21.65 65.3366 21.587 65.4027 21.4938C65.4688 21.4005 65.5044 21.2594 65.5044 21.0729V16.668C65.5044 16.4739 65.4714 16.3328 65.4027 16.2421C65.3366 16.1514 65.2451 16.0909 65.1332 16.0606C65.0213 16.0304 64.8941 16.0153 64.7543 16.0153H64.6348V15.6348H67.2972V16.0153H67.1776C67.0429 16.0153 66.9208 16.0279 66.8064 16.0556C66.6945 16.0833 66.6029 16.1413 66.5317 16.227C66.4605 16.3152 66.4275 16.4487 66.4275 16.6302V21.6525H68.2304C68.4135 21.6525 68.561 21.6122 68.6754 21.529C68.7873 21.4484 68.8712 21.3426 68.9271 21.2166C68.9831 21.0906 69.0187 20.962 69.0365 20.836L69.128 20.1556H69.6035L69.54 22.1061H64.6373H64.6348Z" fill="#1C252E"/>
<path d="M70.3334 22.1061V21.7256H70.4529C70.5927 21.7256 70.7199 21.7105 70.8318 21.6802C70.9437 21.65 71.0352 21.587 71.1013 21.4938C71.1674 21.4005 71.203 21.2594 71.203 21.0729V16.668C71.203 16.4739 71.17 16.3328 71.1013 16.2421C71.0352 16.1514 70.9437 16.0909 70.8318 16.0606C70.7199 16.0304 70.5927 16.0153 70.4529 16.0153H70.3334V15.6348H72.9958V16.0153H72.8762C72.7415 16.0153 72.6194 16.0279 72.505 16.0556C72.3931 16.0833 72.3016 16.1413 72.2304 16.227C72.1592 16.3152 72.1261 16.4487 72.1261 16.6302V21.6525H73.929C74.1121 21.6525 74.2596 21.6122 74.374 21.529C74.4859 21.4484 74.5698 21.3426 74.6257 21.2166C74.6817 21.0906 74.7173 20.962 74.7351 20.836L74.8266 20.1556H75.3022L75.2386 22.1061H70.3359H70.3334Z" fill="#1C252E"/>
<path d="M75.6861 22.1067V21.7262H75.859C75.9811 21.7262 76.0777 21.7085 76.1515 21.6707C76.2252 21.6355 76.2913 21.5649 76.3524 21.4616C76.4134 21.3583 76.4795 21.2096 76.5533 21.0181L78.585 15.6328H79.2996L81.3669 21.2449C81.4152 21.3709 81.4686 21.4691 81.522 21.5397C81.578 21.6103 81.6441 21.6581 81.7229 21.6859C81.8018 21.7136 81.9009 21.7262 82.0154 21.7262H82.1349V22.1067H79.62V21.7262H79.831C80.0141 21.7262 80.1514 21.6909 80.243 21.6229C80.3345 21.5523 80.3803 21.4439 80.3803 21.2927C80.3803 21.2575 80.3777 21.2222 80.3701 21.1894C80.365 21.1567 80.3574 21.1189 80.3472 21.0811C80.3371 21.0407 80.3243 21.0004 80.3065 20.9576L79.9404 19.942H77.5348L77.1864 20.8946C77.1686 20.9425 77.1534 20.9903 77.1407 21.0407C77.1279 21.0886 77.1203 21.134 77.1127 21.1718C77.1076 21.2121 77.1025 21.2499 77.1025 21.2852C77.1025 21.4364 77.1534 21.5473 77.2525 21.6203C77.3543 21.6934 77.5043 21.7287 77.7052 21.7287H77.9162V22.1092H75.6836L75.6861 22.1067ZM77.7077 19.4884H79.7751L79.208 17.9008C79.147 17.7194 79.0885 17.548 79.03 17.3842C78.9715 17.2204 78.9207 17.0642 78.8749 16.913C78.8291 16.7618 78.7884 16.6131 78.7503 16.4695C78.7198 16.6156 78.6842 16.7542 78.646 16.8903C78.6054 17.0264 78.5621 17.1675 78.5138 17.3162C78.4655 17.4649 78.4045 17.6312 78.3307 17.8202L77.7077 19.4884Z" fill="#1C252E"/>
<path d="M25.9815 26.1602H2.45508V28.7762H25.9815V26.1602Z" fill="#E50707"/>
<path d="M81.8787 26.1602H58.3523V28.7762H81.8787V26.1602Z" fill="#E50707"/>
<path d="M58.3208 26.1602H26.0154V28.7762H58.3208V26.1602Z" fill="#FFBD59"/>
<path d="M3.85196 35.9369L2.45508 32.0273H3.02499L4.19391 35.2745L5.36041 32.0273H5.93517L4.53828 35.9369H3.84954H3.85196Z" fill="#1C252E"/>
<path d="M8.3652 35.9919C8.09843 35.9919 7.86077 35.9343 7.65705 35.8191C7.45334 35.7039 7.29328 35.5407 7.18172 35.3295C7.06774 35.1159 7.01196 34.8639 7.01196 34.5687C7.01196 34.2735 7.06289 34.0215 7.16717 33.8007C7.27145 33.5799 7.42181 33.4047 7.61825 33.2775C7.81469 33.1503 8.05235 33.0879 8.32882 33.0879C8.60529 33.0879 8.8284 33.1455 9.01756 33.2607C9.20672 33.3759 9.34738 33.5367 9.44439 33.7455C9.54139 33.9543 9.5899 34.1991 9.5899 34.4823V34.6743H7.60127C7.60127 34.8423 7.62795 34.9911 7.68373 35.1255C7.73951 35.2575 7.82439 35.3631 7.93594 35.4399C8.0475 35.5167 8.18816 35.5551 8.3555 35.5551C8.52283 35.5551 8.67076 35.5167 8.79445 35.4423C8.91813 35.3679 8.99574 35.2527 9.03454 35.1039H9.57777C9.54624 35.2959 9.46864 35.4567 9.34496 35.5911C9.2237 35.7255 9.07576 35.8239 8.906 35.8935C8.73382 35.9607 8.55678 35.9943 8.37005 35.9943L8.3652 35.9919ZM7.59642 34.2975H9.02726C9.02726 34.1511 9.00058 34.0191 8.94966 33.8991C8.89873 33.7791 8.82112 33.6855 8.71684 33.6159C8.61256 33.5463 8.4816 33.5103 8.32154 33.5103C8.16148 33.5103 8.02568 33.5487 7.91654 33.6255C7.80984 33.7023 7.72738 33.8031 7.67403 33.9231C7.62068 34.0431 7.594 34.1679 7.594 34.2951L7.59642 34.2975Z" fill="#1C252E"/>
<path d="M10.9407 35.9375V33.1415H11.5106V33.5447C11.5566 33.4679 11.6173 33.3983 11.6949 33.3311C11.7725 33.2639 11.8671 33.2111 11.981 33.1679C12.095 33.1271 12.226 33.1055 12.3763 33.1055C12.5534 33.1055 12.7159 33.1391 12.8662 33.2087C13.0166 33.2783 13.1378 33.3863 13.2276 33.5327C13.3197 33.6791 13.3634 33.8687 13.3634 34.1015V35.9351H12.7789V34.1639C12.7789 33.9647 12.7231 33.8159 12.614 33.7175C12.5049 33.6191 12.3642 33.5711 12.1969 33.5711C12.0829 33.5711 11.9738 33.5903 11.8695 33.6287C11.7652 33.6671 11.6828 33.7247 11.6173 33.7991C11.5542 33.8759 11.5227 33.9719 11.5227 34.0871V35.9327H10.9382L10.9407 35.9375Z" fill="#1C252E"/>
<path d="M15.8904 35.9559C15.6819 35.9559 15.5194 35.9271 15.4054 35.8719C15.2914 35.8167 15.2114 35.7351 15.1653 35.6295C15.1192 35.5239 15.0974 35.3967 15.0974 35.2479V33.5583H14.639V33.1431H15.1168L15.2575 32.3223H15.6843V33.1407H16.3172V33.5607H15.6843V35.2287C15.6867 35.3199 15.6964 35.3871 15.7158 35.4303C15.7352 35.4735 15.7667 35.4999 15.8152 35.5119C15.8637 35.5239 15.9244 35.5287 16.0044 35.5287H16.3318V35.9055C16.2978 35.9199 16.2445 35.9319 16.1717 35.9439C16.099 35.9535 16.0068 35.9607 15.8928 35.9607L15.8904 35.9559Z" fill="#1C252E"/>
<path d="M18.4659 35.9919C18.284 35.9919 18.1215 35.9583 17.9808 35.8935C17.8402 35.8287 17.7286 35.7351 17.6486 35.6127C17.5686 35.4903 17.5273 35.3415 17.5273 35.1687C17.5273 34.8591 17.6389 34.6263 17.8596 34.4727C18.0803 34.3191 18.4368 34.2375 18.9242 34.2303L19.3899 34.2159V34.0143C19.3899 33.8535 19.3414 33.7287 19.2444 33.6351C19.1473 33.5439 18.9994 33.4983 18.7957 33.5007C18.6453 33.5007 18.512 33.5343 18.3931 33.6039C18.2743 33.6735 18.1967 33.7839 18.1603 33.9423H17.6559C17.6656 33.7575 17.7214 33.6015 17.8184 33.4743C17.9154 33.3471 18.0512 33.2511 18.2209 33.1863C18.3907 33.1215 18.592 33.0879 18.8224 33.0879C19.0819 33.0879 19.2929 33.1215 19.4578 33.1911C19.6227 33.2607 19.7464 33.3615 19.8288 33.4959C19.9088 33.6303 19.9501 33.7911 19.9501 33.9831V35.9367H19.4529L19.4093 35.4231C19.3026 35.6367 19.1692 35.7855 19.0067 35.8671C18.8442 35.9487 18.6623 35.9895 18.4635 35.9895L18.4659 35.9919ZM18.6478 35.5887C18.7375 35.5887 18.8248 35.5719 18.9121 35.5407C18.9994 35.5095 19.0794 35.4663 19.1498 35.4111C19.2201 35.3559 19.2783 35.2935 19.3195 35.2263C19.3632 35.1567 19.385 35.0871 19.3874 35.0151V34.5543L19.0018 34.5591C18.8078 34.5591 18.6453 34.5807 18.5095 34.6191C18.3737 34.6575 18.2694 34.7151 18.1991 34.7943C18.1288 34.8735 18.0924 34.9791 18.0924 35.1111C18.0924 35.2599 18.1458 35.3775 18.25 35.4615C18.3543 35.5455 18.4877 35.5863 18.6502 35.5863L18.6478 35.5887Z" fill="#1C252E"/>
<path d="M23.4811 35.9369V32.0273H26.0323V32.5289H24.068V33.7145H25.8189V34.2113H24.0655V35.4233H26.0784V35.9345H23.4811V35.9369Z" fill="#1C252E"/>
<path d="M27.4778 35.9375V33.1415H28.0477V33.5447C28.0938 33.4679 28.1544 33.3983 28.232 33.3311C28.3096 33.2639 28.4042 33.2111 28.5182 33.1679C28.6321 33.1271 28.7631 33.1055 28.9135 33.1055C29.0905 33.1055 29.253 33.1391 29.4033 33.2087C29.5537 33.2783 29.675 33.3863 29.7647 33.5327C29.8568 33.6791 29.9005 33.8687 29.9005 34.1015V35.9351H29.316V34.1639C29.316 33.9647 29.2603 33.8159 29.1511 33.7175C29.042 33.6191 28.9013 33.5711 28.734 33.5711C28.62 33.5711 28.5109 33.5903 28.4066 33.6287C28.3023 33.6671 28.2199 33.7247 28.1544 33.7991C28.0913 33.8759 28.0598 33.9719 28.0598 34.0871V35.9327H27.4753L27.4778 35.9375Z" fill="#1C252E"/>
<path d="M32.4251 35.9559C32.2165 35.9559 32.054 35.9271 31.9401 35.8719C31.8261 35.8167 31.746 35.7351 31.7 35.6295C31.6539 35.5239 31.6321 35.3967 31.6321 35.2479V33.5583H31.1737V33.1431H31.6515L31.7921 32.3223H32.2189V33.1407H32.8519V33.5607H32.2189V35.2287C32.2214 35.3199 32.2311 35.3871 32.2505 35.4303C32.2699 35.4735 32.3014 35.4999 32.3499 35.5119C32.3984 35.5239 32.459 35.5287 32.5391 35.5287H32.8665V35.9055C32.8325 35.9199 32.7792 35.9319 32.7064 35.9439C32.6336 35.9535 32.5415 35.9607 32.4275 35.9607L32.4251 35.9559Z" fill="#1C252E"/>
<path d="M34.1954 35.9371V33.1411H34.7556V33.7147C34.8041 33.5779 34.8696 33.4627 34.9545 33.3691C35.0394 33.2755 35.1388 33.2059 35.2504 33.1579C35.3644 33.1099 35.4832 33.0859 35.6093 33.0859C35.6481 33.0859 35.6845 33.0859 35.7184 33.0931C35.7524 33.1003 35.7815 33.1051 35.8009 33.1171V33.6739C35.7766 33.6619 35.7475 33.6547 35.7087 33.6523C35.6723 33.6499 35.6384 33.6451 35.6117 33.6451C35.488 33.6355 35.3741 33.6427 35.2722 33.6643C35.1703 33.6859 35.083 33.7219 35.0079 33.7723C34.9351 33.8227 34.8769 33.8875 34.8381 33.9691C34.7993 34.0507 34.7799 34.1467 34.7799 34.2547V35.9371H34.1954Z" fill="#1C252E"/>
<path d="M37.855 35.9919C37.6731 35.9919 37.5107 35.9583 37.37 35.8935C37.2293 35.8287 37.1178 35.7351 37.0378 35.6127C36.9577 35.4903 36.9165 35.3415 36.9165 35.1687C36.9165 34.8591 37.0281 34.6263 37.2487 34.4727C37.4694 34.3191 37.8259 34.2375 38.3134 34.2303L38.779 34.2159V34.0143C38.779 33.8535 38.7305 33.7287 38.6335 33.6351C38.5365 33.5439 38.3886 33.4983 38.1849 33.5007C38.0345 33.5007 37.9011 33.5343 37.7823 33.6039C37.6634 33.6735 37.5858 33.7839 37.5495 33.9423H37.045C37.0547 33.7575 37.1105 33.6015 37.2075 33.4743C37.3045 33.3471 37.4403 33.2511 37.6101 33.1863C37.7799 33.1215 37.9811 33.0879 38.2115 33.0879C38.471 33.0879 38.682 33.1215 38.8469 33.1911C39.0118 33.2607 39.1355 33.3615 39.218 33.4959C39.298 33.6303 39.3392 33.7911 39.3392 33.9831V35.9367H38.8421L38.7984 35.4231C38.6917 35.6367 38.5583 35.7855 38.3958 35.8671C38.2334 35.9487 38.0515 35.9895 37.8526 35.9895L37.855 35.9919ZM38.0393 35.5887C38.1291 35.5887 38.2164 35.5719 38.3037 35.5407C38.391 35.5095 38.471 35.4663 38.5414 35.4111C38.6117 35.3559 38.6699 35.2935 38.7111 35.2263C38.7548 35.1567 38.7766 35.0871 38.779 35.0151V34.5543L38.3934 34.5591C38.1994 34.5591 38.0369 34.5807 37.9011 34.6191C37.7653 34.6575 37.661 34.7151 37.5907 34.7943C37.5204 34.8735 37.484 34.9791 37.484 35.1111C37.484 35.2599 37.5373 35.3775 37.6416 35.4615C37.7459 35.5455 37.8793 35.5863 38.0418 35.5863L38.0393 35.5887Z" fill="#1C252E"/>
<path d="M41.8201 35.9923C41.4515 35.9923 41.158 35.8675 40.9446 35.6155C40.7312 35.3635 40.6245 35.0011 40.6245 34.5283C40.6245 34.2379 40.6682 33.9859 40.7555 33.7699C40.8428 33.5539 40.9689 33.3883 41.1386 33.2683C41.3084 33.1483 41.5194 33.0907 41.7716 33.0907C41.8977 33.0907 42.0093 33.1051 42.1111 33.1363C42.213 33.1675 42.2979 33.2059 42.373 33.2563C42.4482 33.3043 42.5113 33.3571 42.5622 33.4123C42.6131 33.4675 42.6519 33.5203 42.6762 33.5683V31.9219H43.2655V35.9395H42.8265L42.7611 35.3659C42.7417 35.4259 42.7101 35.4931 42.6689 35.5651C42.6277 35.6371 42.5719 35.7067 42.4992 35.7715C42.4264 35.8363 42.3342 35.8891 42.2251 35.9299C42.1136 35.9707 41.9802 35.9923 41.8225 35.9923H41.8201ZM41.9317 35.5555C42.1936 35.5555 42.3827 35.4739 42.4992 35.3107C42.6156 35.1475 42.6738 34.8787 42.6738 34.5067C42.6738 34.2955 42.6471 34.1179 42.5962 33.9715C42.5452 33.8251 42.4676 33.7147 42.3609 33.6403C42.2542 33.5659 42.1136 33.5275 41.9414 33.5275C41.7255 33.5275 41.5485 33.6043 41.4103 33.7579C41.272 33.9115 41.2041 34.1611 41.2041 34.5043C41.2041 34.8475 41.2672 35.1019 41.3909 35.2819C41.5145 35.4619 41.6964 35.5531 41.9292 35.5531L41.9317 35.5555Z" fill="#1C252E"/>
<path d="M45.55 35.9919C45.3681 35.9919 45.2056 35.9583 45.065 35.8935C44.9243 35.8287 44.8127 35.7351 44.7327 35.6127C44.6527 35.4903 44.6115 35.3415 44.6115 35.1687C44.6115 34.8591 44.723 34.6263 44.9437 34.4727C45.1644 34.3191 45.5209 34.2375 46.0083 34.2303L46.474 34.2159V34.0143C46.474 33.8535 46.4255 33.7287 46.3285 33.6351C46.2315 33.5439 46.0835 33.4983 45.8798 33.5007C45.7294 33.5007 45.5961 33.5343 45.4772 33.6039C45.3584 33.6735 45.2808 33.7839 45.2444 33.9423H44.74C44.7497 33.7575 44.8055 33.6015 44.9025 33.4743C44.9995 33.3471 45.1353 33.2511 45.305 33.1863C45.4748 33.1215 45.6761 33.0879 45.9065 33.0879C46.166 33.0879 46.377 33.1215 46.5419 33.1911C46.7068 33.2607 46.8305 33.3615 46.9129 33.4959C46.9929 33.6303 47.0342 33.7911 47.0342 33.9831V35.9367H46.537L46.4934 35.4231C46.3867 35.6367 46.2533 35.7855 46.0908 35.8671C45.9283 35.9487 45.7464 35.9895 45.5476 35.9895L45.55 35.9919ZM45.7343 35.5887C45.824 35.5887 45.9113 35.5719 45.9986 35.5407C46.0859 35.5095 46.166 35.4663 46.2363 35.4111C46.3066 35.3559 46.3648 35.2935 46.4061 35.2263C46.4497 35.1567 46.4715 35.0871 46.474 35.0151V34.5543L46.0884 34.5591C45.8944 34.5591 45.7319 34.5807 45.5961 34.6191C45.4603 34.6575 45.356 34.7151 45.2856 34.7943C45.2153 34.8735 45.1789 34.9791 45.1789 35.1111C45.1789 35.2599 45.2323 35.3775 45.3366 35.4615C45.4409 35.5455 45.5742 35.5863 45.7367 35.5863L45.7343 35.5887Z" fill="#1C252E"/>
<path d="M49.5248 35.9923C49.3283 35.9923 49.144 35.9611 48.9718 35.9011C48.7997 35.8387 48.6566 35.7427 48.5402 35.6107C48.4238 35.4787 48.351 35.3107 48.3219 35.1043H48.8433C48.8676 35.2099 48.9112 35.2987 48.9791 35.3683C49.0446 35.4379 49.1246 35.4883 49.2192 35.5219C49.3138 35.5555 49.4132 35.5723 49.5199 35.5723C49.6994 35.5723 49.8425 35.5411 49.954 35.4763C50.0656 35.4115 50.1189 35.3131 50.1189 35.1811C50.1189 35.0851 50.0898 35.0083 50.0292 34.9507C49.9686 34.8931 49.8764 34.8499 49.7503 34.8235L49.1877 34.6915C48.9549 34.6363 48.7681 34.5523 48.6275 34.4323C48.4868 34.3147 48.4165 34.1491 48.4141 33.9355C48.4141 33.7723 48.4553 33.6259 48.5377 33.4987C48.6202 33.3715 48.7439 33.2707 48.9088 33.1963C49.0737 33.1219 49.2774 33.0859 49.5199 33.0859C49.8376 33.0859 50.0947 33.1555 50.2887 33.2971C50.4827 33.4387 50.5821 33.6403 50.587 33.9091H50.0826C50.0632 33.7819 50.005 33.6811 49.9055 33.6067C49.8061 33.5323 49.6751 33.4963 49.5126 33.4963C49.3502 33.4963 49.2071 33.5299 49.1004 33.5947C48.9937 33.6595 48.9379 33.7603 48.9379 33.8971C48.9379 33.9883 48.9767 34.0627 49.0567 34.1155C49.1367 34.1683 49.2532 34.2115 49.4084 34.2475L49.9443 34.3795C50.0826 34.4155 50.1965 34.4635 50.2863 34.5211C50.376 34.5787 50.4463 34.6435 50.4973 34.7155C50.5482 34.7875 50.5846 34.8595 50.6064 34.9339C50.6282 35.0107 50.6379 35.0803 50.6379 35.1475C50.6379 35.3251 50.5918 35.4763 50.5021 35.6011C50.4124 35.7259 50.2838 35.8219 50.1189 35.8915C49.954 35.9587 49.7552 35.9923 49.5223 35.9923H49.5248Z" fill="#1C252E"/>
<path d="M55.5562 35.9922C55.1973 35.9922 54.8868 35.913 54.6274 35.7546C54.3654 35.5962 54.1641 35.3682 54.0235 35.0706C53.8828 34.773 53.8125 34.413 53.8125 33.9906C53.8125 33.5682 53.8828 33.2034 54.0259 32.9034C54.169 32.6034 54.3703 32.373 54.6322 32.2146C54.8941 32.0538 55.2021 31.9746 55.5562 31.9746C55.9103 31.9746 56.2158 32.0538 56.4753 32.2146C56.7348 32.373 56.9361 32.6034 57.0768 32.9034C57.2174 33.2034 57.2877 33.5658 57.2877 33.9906C57.2877 34.4154 57.2174 34.7706 57.0768 35.0682C56.9361 35.3658 56.7372 35.5938 56.4777 35.7522C56.2182 35.9106 55.9103 35.9898 55.5562 35.9898V35.9922ZM55.5562 35.4954C55.7866 35.4954 55.9806 35.4426 56.1455 35.3394C56.3104 35.2362 56.4317 35.0706 56.519 34.8498C56.6038 34.629 56.6475 34.3434 56.6475 33.9978C56.6475 33.6522 56.6038 33.3522 56.5165 33.1266C56.4292 32.901 56.3056 32.7354 56.1431 32.6274C55.9806 32.5194 55.7841 32.4666 55.5562 32.4666C55.3282 32.4666 55.1318 32.5194 54.9669 32.6298C54.802 32.7378 54.6759 32.9034 54.5861 33.129C54.4964 33.3546 54.4527 33.6426 54.4527 33.9978C54.4527 34.353 54.4964 34.629 54.5861 34.8498C54.6759 35.0706 54.802 35.2338 54.9669 35.337C55.1318 35.4402 55.3282 35.493 55.5562 35.493V35.4954Z" fill="#1C252E"/>
<path d="M59.0169 35.9384V33.56H58.4397V33.1448H59.0169V32.72C59.0169 32.4968 59.0775 32.3264 59.1963 32.2088C59.3152 32.0912 59.4922 32.0312 59.725 32.0312H60.2901V32.4344H59.8827C59.7711 32.4344 59.6959 32.4633 59.6547 32.5209C59.6135 32.5784 59.5941 32.6672 59.5941 32.7896V33.1472H60.2658V33.5624H59.6038V35.9408H59.0169V35.9384Z" fill="#1C252E"/>
<path d="M61.5074 32.6024V32.0312H62.0943V32.6024H61.5074ZM61.522 35.9384V33.1424H62.0846V35.9384H61.522Z" fill="#1C252E"/>
<path d="M64.7353 35.9919C64.4807 35.9919 64.2527 35.9367 64.0563 35.8263C63.8598 35.7159 63.7022 35.5527 63.5882 35.3367C63.4742 35.1207 63.4185 34.8591 63.4185 34.5519C63.4185 34.2615 63.4718 34.0071 63.5761 33.7863C63.6804 33.5655 63.8307 33.3951 64.0272 33.2727C64.2236 33.1503 64.4588 33.0879 64.7353 33.0879C64.9487 33.0879 65.1379 33.1287 65.3004 33.2103C65.4629 33.2919 65.5987 33.4071 65.7005 33.5511C65.8024 33.6975 65.8654 33.8679 65.8873 34.0623H65.3804C65.3659 33.9711 65.3319 33.8847 65.2761 33.8055C65.2203 33.7263 65.15 33.6615 65.0603 33.6159C64.9705 33.5679 64.8638 33.5439 64.7402 33.5439C64.5122 33.5439 64.3279 33.6255 64.1848 33.7911C64.0417 33.9543 63.9714 34.2063 63.9714 34.5447C63.9714 34.8543 64.0369 35.1015 64.1703 35.2863C64.3036 35.4711 64.4952 35.5623 64.7474 35.5623C64.8711 35.5623 64.9778 35.5359 65.0676 35.4855C65.1573 35.4351 65.2276 35.3703 65.281 35.2911C65.3343 35.2119 65.3683 35.1303 65.3828 35.0439H65.88C65.8582 35.2311 65.7951 35.3967 65.6932 35.5383C65.5914 35.6799 65.458 35.7903 65.2931 35.8695C65.1282 35.9487 64.9414 35.9895 64.7329 35.9895L64.7353 35.9919Z" fill="#1C252E"/>
<path d="M67.209 32.6024V32.0312H67.7959V32.6024H67.209ZM67.2211 35.9384V33.1424H67.7837V35.9384H67.2211Z" fill="#1C252E"/>
<path d="M70.0804 35.9919C69.8985 35.9919 69.736 35.9583 69.5953 35.8935C69.4547 35.8287 69.3431 35.7351 69.2631 35.6127C69.1831 35.4903 69.1418 35.3415 69.1418 35.1687C69.1418 34.8591 69.2534 34.6263 69.4741 34.4727C69.6948 34.3191 70.0513 34.2375 70.5387 34.2303L71.0044 34.2159V34.0143C71.0044 33.8535 70.9559 33.7287 70.8588 33.6351C70.7618 33.5439 70.6139 33.4983 70.4102 33.5007C70.2598 33.5007 70.1265 33.5343 70.0076 33.6039C69.8888 33.6735 69.8112 33.7839 69.7748 33.9423H69.2704C69.2801 33.7575 69.3359 33.6015 69.4329 33.4743C69.5299 33.3471 69.6657 33.2511 69.8354 33.1863C70.0052 33.1215 70.2065 33.0879 70.4369 33.0879C70.6964 33.0879 70.9074 33.1215 71.0723 33.1911C71.2372 33.2607 71.3609 33.3615 71.4433 33.4959C71.5233 33.6303 71.5646 33.7911 71.5646 33.9831V35.9367H71.0674L71.0238 35.4231C70.9171 35.6367 70.7837 35.7855 70.6212 35.8671C70.4587 35.9487 70.2768 35.9895 70.0779 35.9895L70.0804 35.9919ZM70.2647 35.5887C70.3544 35.5887 70.4417 35.5719 70.529 35.5407C70.6163 35.5095 70.6964 35.4663 70.7667 35.4111C70.837 35.3559 70.8952 35.2935 70.9365 35.2263C70.9801 35.1567 71.0019 35.0871 71.0044 35.0151V34.5543L70.6188 34.5591C70.4247 34.5591 70.2623 34.5807 70.1265 34.6191C69.9906 34.6575 69.8864 34.7151 69.816 34.7943C69.7457 34.8735 69.7093 34.9791 69.7093 35.1111C69.7093 35.2599 69.7627 35.3775 69.867 35.4615C69.9712 35.5455 70.1046 35.5863 70.2671 35.5863L70.2647 35.5887Z" fill="#1C252E"/>
<path d="M73.769 35.9759C73.6017 35.9759 73.4659 35.9543 73.3665 35.9111C73.2646 35.8679 73.1894 35.8103 73.1361 35.7359C73.0827 35.6639 73.0488 35.5799 73.0318 35.4863C73.0148 35.3927 73.0051 35.2967 73.0051 35.1983V31.9199H73.5823V35.1407C73.5823 35.2703 73.609 35.3687 73.6599 35.4383C73.7108 35.5079 73.7909 35.5463 73.9 35.5535L74.0479 35.5583V35.9255C74.0019 35.9399 73.9558 35.9519 73.9073 35.9615C73.8588 35.9711 73.8127 35.9759 73.7715 35.9759H73.769Z" fill="#1C252E"/>
<path d="M76.6088 35.9919C76.3421 35.9919 76.1044 35.9343 75.9007 35.8191C75.697 35.7039 75.5369 35.5407 75.4254 35.3295C75.3114 35.1159 75.2556 34.8639 75.2556 34.5687C75.2556 34.2735 75.3065 34.0215 75.4108 33.8007C75.5151 33.5799 75.6655 33.4047 75.8619 33.2775C76.0583 33.1503 76.296 33.0879 76.5725 33.0879C76.8489 33.0879 77.072 33.1455 77.2612 33.2607C77.4504 33.3759 77.591 33.5367 77.688 33.7455C77.785 33.9543 77.8335 34.1991 77.8335 34.4823V34.6743H75.8449C75.8449 34.8423 75.8716 34.9911 75.9274 35.1255C75.9832 35.2575 76.068 35.3631 76.1796 35.4399C76.2912 35.5167 76.4318 35.5551 76.5991 35.5551C76.7665 35.5551 76.9144 35.5167 77.0381 35.4423C77.1618 35.3679 77.2394 35.2527 77.2782 35.1039H77.8214C77.7899 35.2959 77.7123 35.4567 77.5886 35.5911C77.4673 35.7255 77.3194 35.8239 77.1497 35.8935C76.9775 35.9607 76.8004 35.9943 76.6137 35.9943L76.6088 35.9919ZM75.8425 34.2975H77.2733C77.2733 34.1511 77.2467 34.0191 77.1957 33.8991C77.1448 33.7791 77.0672 33.6855 76.9629 33.6159C76.8586 33.5463 76.7277 33.5103 76.5676 33.5103C76.4076 33.5103 76.2718 33.5487 76.1626 33.6255C76.0559 33.7023 75.9735 33.8031 75.9201 33.9231C75.8668 34.0431 75.8401 34.1679 75.8401 34.2951L75.8425 34.2975Z" fill="#1C252E"/>
<path d="M80.2369 35.9923C80.0405 35.9923 79.8562 35.9611 79.684 35.9011C79.5118 35.8387 79.3687 35.7427 79.2523 35.6107C79.1359 35.4787 79.0632 35.3107 79.0341 35.1043H79.5555C79.5797 35.2099 79.6234 35.2987 79.6913 35.3683C79.7568 35.4379 79.8368 35.4883 79.9314 35.5219C80.0259 35.5555 80.1254 35.5723 80.2321 35.5723C80.4115 35.5723 80.5546 35.5411 80.6662 35.4763C80.7777 35.4115 80.8311 35.3131 80.8311 35.1811C80.8311 35.0851 80.802 35.0083 80.7414 34.9507C80.6807 34.8931 80.5886 34.8499 80.4625 34.8235L79.8998 34.6915C79.667 34.6363 79.4803 34.5523 79.3396 34.4323C79.199 34.3147 79.1286 34.1491 79.1262 33.9355C79.1262 33.7723 79.1674 33.6259 79.2499 33.4987C79.3324 33.3715 79.456 33.2707 79.6209 33.1963C79.7859 33.1219 79.9896 33.0859 80.2321 33.0859C80.5498 33.0859 80.8068 33.1555 81.0009 33.2971C81.1949 33.4387 81.2943 33.6403 81.2991 33.9091H80.7947C80.7753 33.7819 80.7171 33.6811 80.6177 33.6067C80.5183 33.5323 80.3873 33.4963 80.2248 33.4963C80.0623 33.4963 79.9192 33.5299 79.8125 33.5947C79.7058 33.6595 79.65 33.7603 79.65 33.8971C79.65 33.9883 79.6888 34.0627 79.7689 34.1155C79.8489 34.1683 79.9653 34.2115 80.1205 34.2475L80.6565 34.3795C80.7947 34.4155 80.9087 34.4635 80.9984 34.5211C81.0882 34.5787 81.1585 34.6435 81.2094 34.7155C81.2603 34.7875 81.2967 34.8595 81.3186 34.9339C81.3404 35.0107 81.3501 35.0803 81.3501 35.1475C81.3501 35.3251 81.304 35.4763 81.2143 35.6011C81.1245 35.7259 80.996 35.8219 80.8311 35.8915C80.6662 35.9587 80.4673 35.9923 80.2345 35.9923H80.2369Z" fill="#1C252E"/>
</svg>
