<svg width="14" height="14" viewBox="0 0 14 14" fill="none" xmlns="http://www.w3.org/2000/svg">
<path fill-rule="evenodd" clip-rule="evenodd" d="M4.44067 0.719622C4.61439 0.632986 4.80587 0.587891 5 0.587891C5.19413 0.587891 5.38561 0.632986 5.55933 0.719622L8.888 2.38496C8.95867 2.41962 9.04133 2.41962 9.112 2.38496L11.6913 1.09496C11.8819 0.99975 12.0936 0.954823 12.3064 0.964439C12.5192 0.974055 12.726 1.03789 12.9072 1.1499C13.0884 1.2619 13.238 1.41836 13.3417 1.60441C13.4455 1.79046 13.5 1.99994 13.5 2.21296V10.5363C13.5 11.0096 13.2327 11.443 12.8087 11.6543L9.55867 13.279C9.38511 13.3654 9.19388 13.4104 9 13.4104C8.80612 13.4104 8.61489 13.3654 8.44133 13.279L5.112 11.6143C5.07716 11.5971 5.03884 11.5882 5 11.5882C4.96116 11.5882 4.92284 11.5971 4.888 11.6143L2.30933 12.9043C2.11875 12.9997 1.90695 13.0447 1.69405 13.0352C1.48115 13.0256 1.27423 12.9618 1.09293 12.8498C0.91164 12.7378 0.761997 12.5813 0.65822 12.3951C0.554444 12.209 0.499979 11.9994 0.5 11.7863V3.46296C0.5 2.98962 0.767333 2.55629 1.19067 2.34496L4.44067 0.719622ZM5 2.99962C5.13261 2.99962 5.25979 3.0523 5.35355 3.14607C5.44732 3.23984 5.5 3.36701 5.5 3.49962V8.99962C5.5 9.13223 5.44732 9.25941 5.35355 9.35318C5.25979 9.44694 5.13261 9.49962 5 9.49962C4.86739 9.49962 4.74022 9.44694 4.64645 9.35318C4.55268 9.25941 4.5 9.13223 4.5 8.99962V3.49962C4.5 3.36701 4.55268 3.23984 4.64645 3.14607C4.74022 3.0523 4.86739 2.99962 5 2.99962ZM9.5 4.99962C9.5 4.86701 9.44732 4.73984 9.35355 4.64607C9.25979 4.5523 9.13261 4.49962 9 4.49962C8.86739 4.49962 8.74022 4.5523 8.64645 4.64607C8.55268 4.73984 8.5 4.86701 8.5 4.99962V10.4996C8.5 10.6322 8.55268 10.7594 8.64645 10.8532C8.74022 10.9469 8.86739 10.9996 9 10.9996C9.13261 10.9996 9.25979 10.9469 9.35355 10.8532C9.44732 10.7594 9.5 10.6322 9.5 10.4996V4.99962Z" fill="#637381"/>
</svg>
